<?xml version="1.0" encoding="utf-8"?>
<!-- Generator: Adobe Illustrator 24.0.1, SVG Export Plug-In . SVG Version: 6.00 Build 0)  -->
<svg version="1.1" id="Layer_1" xmlns="http://www.w3.org/2000/svg" xmlns:xlink="http://www.w3.org/1999/xlink" x="0px" y="0px"
	 viewBox="0 0 119.5 53" style="enable-background:new 0 0 119.5 53;" xml:space="preserve">
<path d="M105.7-89.3c-2.1-11.1-11.8-19.4-23.5-19.4c-11.7,0-21.4,8.4-23.5,19.4H105.7z"/>
<path d="M2-20.7"/>
<g>
	<path d="M116.2,19.1V21h2.9v1.7h-2.9v2h3.3v1.7h-5.5v-8.9h5.5v1.7H116.2z"/>
	<g>
		<path d="M104.8,21.7c-0.2,0.4-0.6,0.8-1.1,1c-0.5,0.3-1.1,0.4-1.8,0.4h-1.3v3.2h-2.2v-8.9h3.5c0.7,0,1.3,0.1,1.8,0.4
			c0.5,0.2,0.9,0.6,1.1,1c0.2,0.4,0.4,0.9,0.4,1.5C105.1,20.8,105,21.3,104.8,21.7z M102.6,21.1c0.2-0.2,0.3-0.5,0.3-0.8
			s-0.1-0.6-0.3-0.8c-0.2-0.2-0.5-0.3-0.9-0.3h-1.2v2.2h1.2C102.1,21.4,102.4,21.3,102.6,21.1z"/>
		<path d="M107.7,26.1c-0.5-0.2-0.9-0.5-1.2-0.9c-0.3-0.4-0.5-0.9-0.5-1.5h2.3c0,0.3,0.1,0.6,0.3,0.8c0.2,0.2,0.4,0.3,0.8,0.3
			c0.3,0,0.6-0.1,0.8-0.2c0.2-0.1,0.3-0.4,0.3-0.6c0-0.2-0.1-0.4-0.2-0.5c-0.1-0.1-0.3-0.3-0.5-0.4c-0.2-0.1-0.5-0.2-0.9-0.3
			c-0.6-0.2-1-0.4-1.4-0.5c-0.4-0.2-0.7-0.4-0.9-0.8c-0.3-0.3-0.4-0.8-0.4-1.4c0-0.8,0.3-1.5,0.9-2c0.6-0.5,1.4-0.7,2.4-0.7
			c1,0,1.8,0.2,2.4,0.7c0.6,0.5,0.9,1.1,1,2h-2.3c0-0.3-0.1-0.5-0.3-0.7s-0.4-0.2-0.7-0.2c-0.3,0-0.5,0.1-0.6,0.2
			c-0.2,0.1-0.2,0.3-0.2,0.6c0,0.3,0.1,0.5,0.4,0.7c0.3,0.2,0.7,0.3,1.3,0.5c0.6,0.2,1,0.4,1.4,0.6c0.4,0.2,0.7,0.4,0.9,0.8
			c0.3,0.3,0.4,0.8,0.4,1.3c0,0.5-0.1,1-0.4,1.4c-0.3,0.4-0.6,0.7-1.1,1c-0.5,0.2-1.1,0.4-1.7,0.4C108.8,26.4,108.2,26.3,107.7,26.1
			z"/>
		<g>
			<rect x="29.7" y="-16.1" transform="matrix(0.4576 -0.8891 0.8891 0.4576 2.3636 36.727)" width="3.2" height="65.1"/>
		</g>
		<g>
			<rect x="-1.8" y="34.8" transform="matrix(0.8862 -0.4633 0.4633 0.8862 -13.3442 18.396)" width="65.1" height="3.2"/>
		</g>
		<path d="M73.1,20.2c-0.2-0.3-0.4-0.5-0.7-0.7c-0.3-0.2-0.7-0.2-1.1-0.2c-0.7,0-1.3,0.2-1.7,0.7c-0.4,0.5-0.6,1.1-0.6,1.8
			c0,0.8,0.2,1.5,0.7,1.9c0.4,0.5,1.1,0.7,1.8,0.7c0.5,0,1-0.1,1.4-0.4c0.4-0.3,0.6-0.7,0.8-1.2h-2.8v-1.6h4.7v2
			c-0.2,0.5-0.4,1-0.8,1.5c-0.4,0.5-0.9,0.8-1.5,1.1c-0.6,0.3-1.3,0.4-2,0.4c-0.9,0-1.7-0.2-2.4-0.6c-0.7-0.4-1.2-0.9-1.6-1.6
			c-0.4-0.7-0.6-1.5-0.6-2.3c0-0.9,0.2-1.7,0.6-2.4c0.4-0.7,0.9-1.2,1.6-1.6c0.7-0.4,1.5-0.6,2.3-0.6c1.1,0,2,0.3,2.7,0.8
			c0.7,0.5,1.2,1.2,1.5,2.1H73.1z"/>
		<path d="M79,24.6h2.8v1.7h-5v-8.9H79V24.6z"/>
		<path d="M83.1,18.2c-0.2-0.2-0.4-0.5-0.4-0.8c0-0.3,0.1-0.6,0.4-0.8c0.2-0.2,0.6-0.3,0.9-0.3c0.4,0,0.7,0.1,0.9,0.3
			c0.2,0.2,0.4,0.5,0.4,0.8c0,0.3-0.1,0.6-0.4,0.8c-0.2,0.2-0.5,0.3-0.9,0.3C83.6,18.5,83.3,18.4,83.1,18.2z M85.1,19.2v7.1h-2.2
			v-7.1H85.1z"/>
		<path d="M96.8,17.4v8.9h-2.2V21l-2,5.3h-1.8l-2-5.4v5.4h-2.2v-8.9h2.6l2.5,6.2l2.5-6.2H96.8z"/>
		<g>
			<path d="M70.9,33.6c-0.4-0.2-0.8-0.6-1-1c-0.2-0.4-0.4-0.9-0.4-1.4c0-0.5,0.1-1,0.4-1.4c0.2-0.4,0.6-0.8,1-1s0.9-0.4,1.5-0.4
				c0.4,0,0.8,0.1,1.1,0.2c0.3,0.1,0.6,0.3,0.9,0.6l-0.3,0.3c-0.4-0.4-1-0.7-1.7-0.7c-0.5,0-0.9,0.1-1.3,0.3
				c-0.4,0.2-0.7,0.5-0.9,0.9c-0.2,0.4-0.3,0.8-0.3,1.2c0,0.5,0.1,0.9,0.3,1.2c0.2,0.4,0.5,0.7,0.9,0.9c0.4,0.2,0.8,0.3,1.3,0.3
				c0.7,0,1.2-0.2,1.7-0.7l0.3,0.3c-0.2,0.3-0.5,0.4-0.9,0.6c-0.3,0.1-0.7,0.2-1.1,0.2C71.8,34,71.3,33.9,70.9,33.6z"/>
			<path d="M77.4,33.7c-0.3-0.2-0.6-0.4-0.7-0.7c-0.2-0.3-0.3-0.7-0.3-1.1c0-0.4,0.1-0.8,0.3-1.1c0.2-0.3,0.4-0.6,0.7-0.7
				c0.3-0.2,0.7-0.3,1-0.3c0.4,0,0.7,0.1,1,0.3c0.3,0.2,0.6,0.4,0.7,0.7c0.2,0.3,0.3,0.7,0.3,1.1c0,0.4-0.1,0.8-0.3,1.1
				c-0.2,0.3-0.4,0.6-0.7,0.7c-0.3,0.2-0.7,0.3-1,0.3C78.1,34,77.8,33.9,77.4,33.7z M79.3,33.4c0.2-0.1,0.4-0.3,0.6-0.6
				c0.1-0.3,0.2-0.6,0.2-0.9c0-0.3-0.1-0.6-0.2-0.9c-0.1-0.3-0.3-0.5-0.6-0.6c-0.2-0.1-0.5-0.2-0.8-0.2c-0.3,0-0.6,0.1-0.8,0.2
				c-0.2,0.1-0.4,0.3-0.6,0.6c-0.1,0.3-0.2,0.6-0.2,0.9c0,0.3,0.1,0.6,0.2,0.9c0.1,0.3,0.3,0.5,0.6,0.6c0.2,0.1,0.5,0.2,0.8,0.2
				C78.8,33.6,79.1,33.6,79.3,33.4z"/>
			<path d="M89.6,30.3c0.3,0.3,0.4,0.7,0.4,1.3V34h-0.4v-2.4c0-0.5-0.1-0.8-0.3-1c-0.2-0.2-0.5-0.4-0.9-0.4c-0.5,0-0.8,0.1-1.1,0.4
				c-0.3,0.3-0.4,0.7-0.4,1.2V34h-0.4v-2.4c0-0.5-0.1-0.8-0.3-1c-0.2-0.2-0.5-0.4-0.9-0.4c-0.5,0-0.8,0.1-1.1,0.4
				c-0.3,0.3-0.4,0.7-0.4,1.2V34h-0.4v-4.1h0.4v0.9c0.1-0.3,0.3-0.5,0.6-0.7c0.3-0.2,0.6-0.2,1-0.2c0.4,0,0.7,0.1,0.9,0.2
				c0.3,0.2,0.4,0.4,0.6,0.7c0.1-0.3,0.3-0.5,0.6-0.7c0.3-0.2,0.6-0.3,1-0.3C88.9,29.8,89.3,30,89.6,30.3z"/>
			<path d="M96.3,30.1c0.3,0.2,0.5,0.4,0.7,0.7c0.2,0.3,0.3,0.7,0.3,1.1c0,0.4-0.1,0.8-0.3,1.1c-0.2,0.3-0.4,0.6-0.7,0.7
				c-0.3,0.2-0.7,0.3-1,0.3c-0.4,0-0.7-0.1-1-0.3c-0.3-0.2-0.5-0.4-0.7-0.7v2.5h-0.4v-5.6h0.4v1c0.2-0.3,0.4-0.6,0.7-0.7
				c0.3-0.2,0.6-0.3,1-0.3C95.7,29.8,96,29.9,96.3,30.1z M96.1,33.4c0.3-0.1,0.4-0.3,0.6-0.6c0.1-0.3,0.2-0.6,0.2-0.9
				c0-0.3-0.1-0.6-0.2-0.9c-0.1-0.3-0.3-0.5-0.6-0.6c-0.2-0.1-0.5-0.2-0.8-0.2c-0.3,0-0.6,0.1-0.8,0.2c-0.2,0.1-0.4,0.3-0.6,0.6
				s-0.2,0.6-0.2,0.9c0,0.3,0.1,0.6,0.2,0.9s0.3,0.5,0.6,0.6c0.2,0.1,0.5,0.2,0.8,0.2C95.6,33.6,95.8,33.6,96.1,33.4z"/>
			<path d="M102.6,30.2c0.3,0.3,0.4,0.6,0.4,1.1V34h-0.4v-0.7c-0.1,0.2-0.3,0.4-0.6,0.6c-0.3,0.1-0.6,0.2-0.9,0.2
				c-0.5,0-0.8-0.1-1.1-0.3c-0.3-0.2-0.4-0.5-0.4-0.8c0-0.3,0.1-0.6,0.4-0.8c0.2-0.2,0.6-0.3,1.2-0.3h1.4v-0.3
				c0-0.4-0.1-0.7-0.3-0.9c-0.2-0.2-0.5-0.3-0.9-0.3c-0.3,0-0.5,0-0.8,0.1c-0.2,0.1-0.5,0.2-0.6,0.4l-0.2-0.3
				c0.2-0.2,0.4-0.3,0.7-0.4c0.3-0.1,0.6-0.2,0.9-0.2C101.9,29.8,102.3,30,102.6,30.2z M102.1,33.4c0.2-0.2,0.4-0.4,0.5-0.7V32h-1.4
				c-0.4,0-0.7,0.1-0.9,0.2c-0.2,0.1-0.3,0.3-0.3,0.6c0,0.3,0.1,0.5,0.3,0.6c0.2,0.2,0.5,0.2,0.8,0.2
				C101.6,33.7,101.9,33.6,102.1,33.4z"/>
			<path d="M109.4,30.3c0.3,0.3,0.4,0.7,0.4,1.3V34h-0.4v-2.4c0-0.5-0.1-0.8-0.3-1c-0.2-0.2-0.6-0.4-1-0.4c-0.5,0-0.9,0.1-1.1,0.4
				c-0.3,0.3-0.4,0.7-0.4,1.2V34h-0.4v-4.1h0.4v0.9c0.1-0.3,0.4-0.5,0.6-0.7c0.3-0.2,0.6-0.2,1-0.2C108.7,29.8,109.1,30,109.4,30.3z
				"/>
			<path d="M116.2,29.9l-2.1,4.6c-0.2,0.4-0.3,0.6-0.5,0.8c-0.2,0.2-0.5,0.2-0.7,0.2c-0.2,0-0.4,0-0.5-0.1c-0.2-0.1-0.3-0.2-0.4-0.3
				l0.2-0.3c0.2,0.2,0.5,0.3,0.8,0.3c0.2,0,0.4-0.1,0.5-0.2c0.1-0.1,0.3-0.3,0.4-0.6l0.2-0.5l-1.8-4.1h0.4l1.6,3.7l1.6-3.7H116.2z"
				/>
		</g>
		<path d="M7.7,5.2C7.5,5.4,7.4,5.7,7.2,6c-3.6,7.1-0.9,15.7,6.2,19.4c7.1,3.6,15.7,0.9,19.4-6.2c0.1-0.3,0.3-0.6,0.4-0.9L7.7,5.2z"
			/>
		<g>
			<polygon points="0,7.3 2.6,10.2 3.9,6.5 			"/>
			<polygon points="0,17.7 3.9,18.6 2.7,14.8 			"/>
			<polygon points="4.8,27.5 8.7,27.5 6.8,24 			"/>
			<polygon points="14.9,32.7 17,29.4 13.1,29.2 			"/>
			<polygon points="22.2,29.7 25.1,32.4 26,28.5 			"/>
			<polygon points="32.9,23.4 30.2,26.3 34.1,27.2 			"/>
		</g>
		<path d="M32.2,23"/>
		<path d="M23.6,4.8"/>
	</g>
</g>
</svg>
